<svg xmlns="http://www.w3.org/2000/svg" version="1.1" xmlns:xlink="http://www.w3.org/1999/xlink" xmlns:svgjs="http://svgjs.dev/svgjs" width="1440" height="560" preserveAspectRatio="none" viewBox="0 0 1440 560"><g mask="url(&quot;#SvgjsMask1004&quot;)" fill="none"><path d="M 0,105 C 57.6,128.8 172.8,239 288,224 C 403.2,209 460.8,33.2 576,30 C 691.2,26.8 748.8,189.4 864,208 C 979.2,226.6 1036.8,128.6 1152,123 C 1267.2,117.4 1382.4,168.6 1440,180L1440 560L0 560z" fill="rgba(0, 32, 91, 1)"></path><path d="M 0,425 C 96,399 288,287.4 480,295 C 672,302.6 768,443.6 960,463 C 1152,482.4 1344,406.2 1440,392L1440 560L0 560z" fill="rgba(191, 13, 62, 1)"></path></g><defs><mask id="SvgjsMask1004"><rect width="1440" height="560" fill="#ffffff"></rect></mask></defs></svg>