<svg xmlns="http://www.w3.org/2000/svg" version="1.1" xmlns:xlink="http://www.w3.org/1999/xlink" xmlns:svgjs="http://svgjs.dev/svgjs" width="1440" height="400" preserveAspectRatio="none" viewBox="0 0 1440 400"><g mask="url(&quot;#SvgjsMask1020&quot;)" fill="none"><path d="M 0,153 C 57.6,138.2 172.8,83.2 288,79 C 403.2,74.8 460.8,141.8 576,132 C 691.2,122.2 748.8,19.8 864,30 C 979.2,40.2 1036.8,188.2 1152,183 C 1267.2,177.8 1382.4,39.8 1440,4L1440 400L0 400z" fill="rgba(0, 32, 91, 0.44)"></path><path d="M 0,373 C 96,352.4 288,277.6 480,270 C 672,262.4 768,338.4 960,335 C 1152,331.6 1344,269.4 1440,253L1440 400L0 400z" fill="rgba(191, 13, 62, 0.43)"></path></g><defs><mask id="SvgjsMask1020"><rect width="1440" height="400" fill="#ffffff"></rect></mask></defs></svg>